<svg xmlns="http://www.w3.org/2000/svg" viewBox="0 0 8100.1012 1519.9901"><title>вавадіон0</title><path d="M4963.1888,1221.281,4354.9482,352.4978c-36.0325-51.4312-94.2388-78.2244-152.7531-77.3-56.6664.6159-112.717,27.4094-147.5176,77.3005L3446.4369,1221.281c-57.59,81.92-37.2644,195.8687,44.3477,253.1514,81.92,57.2822,195.8688,37.2641,253.4592-44.6558l81.6121-117.0288h757.606l81.92,117.0288c57.2825,81.92,171.2314,101.938,253.1514,44.6558S5020.4712,1303.2009,4963.1888,1221.281ZM4052.5217,989.38l152.1372-217.4267L4357.104,989.38Z" style="fill:#fe284a"/><path d="M8067.435,1226.1049l-608.2407-868.783c-36.0327-51.4309-94.2388-78.2243-152.7532-77.3-56.9743.6162-112.717,27.4094-147.8254,77.3005l-608.2407,868.783c-57.2825,81.92-37.2644,195.8691,44.6557,253.1513s195.8687,37.2647,253.1511-44.6552l81.92-117.0288h757.606L7769.32,1434.601c57.59,81.92,171.5395,101.938,253.4595,44.6552S8124.7172,1308.0253,8067.435,1226.1049ZM7156.46,994.204l152.4448-217.4272L7461.35,994.204Z" style="fill:#fe284a"/><path d="M2686.0592,1234.1721,2077.8186,365.3892c-35.7246-51.431-93.9309-78.2244-152.4451-77.3006-56.9745.6162-112.717,27.4094-147.8257,77.3006l-608.24,868.7829c-57.2825,81.92-37.2644,195.8691,44.6555,253.1514s195.8689,37.2646,253.1514-44.6553l81.92-117.0288h757.2981l81.92,117.0288c57.2825,81.92,171.2313,101.938,253.1514,44.6553S2743.65,1316.0925,2686.0592,1234.1721Zm-910.6671-231.9009L1927.8372,784.844l152.1372,217.4272Z" style="fill:#fe284a"/><path d="M3217.3073,1157.6805l608.2406-868.7832c57.2824-81.92,37.2644-195.8688-44.6556-253.1512S3585.0234-1.5183,3527.741,80.4017L3067.018,738.2255,2606.6029,80.4017c-57.2824-81.92-171.2313-101.938-253.1513-44.6556s-101.938,171.2312-44.6556,253.1512l608.2406,868.7832c36.0325,51.431,93.9308,78.2244,152.4451,77.3005C3126.4562,1234.365,3182.5067,1207.5716,3217.3073,1157.6805Z" style="fill:#fe284a"/><path d="M941.4856,1154.6008l608.2406-868.7832c57.2824-81.92,37.2644-195.8688-44.6556-253.1512S1309.2017-4.598,1251.9193,77.322L791.1963,735.1458,330.7813,77.322C273.1909-4.598,159.242-24.616,77.322,32.6664S-24.616,203.8976,32.6664,285.8176L640.907,1154.6008c36.0325,51.431,94.2388,78.2244,152.7531,77.3005C850.6345,1231.2853,906.377,1204.4919,941.4856,1154.6008Z" style="fill:#fe284a"/><path d="M6592.0417,425.02c0-1.54-.3078-3.3877-.3078-4.9275-2.772-219.5825-171.8472-398.821-386.81-418.2231A174.2083,174.2083,0,0,0,6179.67.0214H5230.8147c-99.7822,0-181.7023,81.92-181.7023,181.7024v868.4753c0,99.7822,81.92,181.7022,181.7023,181.7022h902.9678c4.3117,0,8.6233-.3081,12.9348-.3081,6.4673,0,12.9345.3081,19.4021.3081,234.9809,0,425.9223-190.6333,425.9223-425.9224,0-6.16-.3078-12.3188-.6159-18.4785.3081-4.0034.6159-8.0068.6159-12.0108Zm-307.97,346.1582-.9239,12.627.616,16.9385c0,1.8476.3079,3.3876.3079,5.2353a117.962,117.962,0,0,1-117.9524,117.9522h-5.8513l-17.5545-.9239-13.2427.9239H5357.0823V307.9916H6171.355l5.8513.6157c59.7461,5.2356,105.9416,55.7427,106.5576,115.7969a7.6547,7.6547,0,0,0,.3079,2.4636Z" style="fill:#fe284a"/><path d="M5869.2866,419.7814H5759.7754a158.8,158.8,0,0,0-158.8,158.8v88.3321a158.8006,158.8006,0,0,0,158.8,158.8008h109.5112a158.8007,158.8007,0,0,0,158.8-158.8008V578.5814A158.8,158.8,0,0,0,5869.2866,419.7814Zm16.7422,202.9665a67.9528,67.9528,0,0,1-67.9524,67.9527h-7.0911a67.953,67.953,0,0,1-67.9526-67.9527v0a67.953,67.953,0,0,1,67.9526-67.9527h7.0911a67.9528,67.9528,0,0,1,67.9524,67.9527Z" style="fill:#fe284a"/></svg>